<svg width="196" height="142" viewBox="0 0 196 142" fill="none" xmlns="http://www.w3.org/2000/svg">
<path d="M14.8899 112.584C7.48048 97.8778 15.0931 80.0423 30.838 75.2194L81.0283 59.8453C87.58 57.8385 93.744 54.7328 99.2557 50.6617L141.369 19.5546C154.672 9.72898 173.617 14.2438 181.058 29.0127C188.429 43.6422 181.002 61.3987 165.41 66.4228L112.33 83.526C106.206 85.4993 100.436 88.4367 95.2376 92.2275L54.2775 122.097C41.0257 131.761 22.2698 127.231 14.8899 112.584Z" fill="#D8FA50" stroke="white"/>
<circle cx="162" cy="38.0005" r="6" fill="#1E0A52"/>
<path d="M70.509 81.1956C70.9265 82.0244 70.9887 82.859 70.6955 83.6995C70.4071 84.5256 69.6818 85.2314 68.5196 85.817L66.6049 86.7817L68.6999 90.9397L67.3996 91.5949L62.3817 81.6356L65.5967 80.0157C66.7207 79.4494 67.7101 79.2913 68.5648 79.5415C69.4289 79.7869 70.077 80.3383 70.509 81.1956ZM67.9797 84.7453C68.7036 84.3806 69.1579 83.9546 69.3424 83.4675C69.527 82.9803 69.4729 82.4462 69.1801 81.8651C68.561 80.6363 67.5465 80.3771 66.1366 81.0874L64.2219 82.0521L66.0649 85.71L67.9797 84.7453ZM71.6471 76.1969L76.9746 86.7706L75.6743 87.4258L70.3468 76.852L71.6471 76.1969ZM76.7179 81.9551C76.3147 81.155 76.1239 80.3732 76.1454 79.6099C76.1621 78.8371 76.3675 78.1423 76.7615 77.5258C77.1651 76.9044 77.7146 76.4185 78.41 76.0682C79.0958 75.7226 79.7656 75.5703 80.4192 75.6112C81.0729 75.6521 81.6363 75.8341 82.1096 76.157L81.3897 74.7281L82.7042 74.0658L86.6494 81.8961L85.3349 82.5584L84.6005 81.1009C84.5737 81.6878 84.3799 82.2632 84.0191 82.8272C83.663 83.3768 83.1468 83.8221 82.4704 84.1628C81.7751 84.5132 81.06 84.6585 80.3251 84.5987C79.5903 84.539 78.905 84.2811 78.2692 83.8251C77.6333 83.3691 77.1162 82.7458 76.7179 81.9551ZM83.3551 78.629C83.0575 78.0384 82.6793 77.5839 82.2203 77.2657C81.7614 76.9475 81.2695 76.7773 80.7447 76.7551C80.2247 76.7185 79.7217 76.8226 79.2359 77.0674C78.7501 77.3122 78.3647 77.6497 78.0798 78.0799C77.7949 78.5101 77.6438 79.0042 77.6264 79.5624C77.609 80.1206 77.7491 80.695 78.0467 81.2856C78.3491 81.8857 78.7321 82.3497 79.1959 82.6774C79.6548 82.9956 80.1443 83.173 80.6644 83.2095C81.1796 83.2366 81.6802 83.1277 82.166 82.8829C82.6518 82.6382 83.0372 82.3007 83.3221 81.8705C83.6117 81.426 83.7652 80.9246 83.7826 80.3664C83.7951 79.7987 83.6526 79.2196 83.3551 78.629ZM87.0276 73.2312L89.353 77.8465C89.5449 78.2275 89.7627 78.4582 90.0062 78.5386C90.245 78.6094 90.5644 78.544 90.9645 78.3424L91.9218 77.8601L92.4762 78.9603L91.3045 79.5507C90.5805 79.9154 89.9535 80.0223 89.4236 79.8713C88.8936 79.7203 88.4366 79.2637 88.0527 78.5016L85.7273 73.8863L84.7128 74.3975L84.1729 73.3258L85.1874 72.8147L84.1939 70.8428L85.4942 70.1877L86.4877 72.1595L88.531 71.1301L89.0709 72.2017L87.0276 73.2312ZM93.8328 69.8025L92.1896 70.6304L95.5948 77.389L94.2945 78.0442L90.8893 71.2856L89.8748 71.7967L89.3348 70.725L90.3493 70.2139L90.0686 69.6566C89.627 68.7802 89.5293 68.0292 89.7754 67.4036C90.0263 66.7636 90.6518 66.1916 91.652 65.6876L92.1992 66.7736C91.6276 67.0616 91.2804 67.3799 91.1574 67.7285C91.0392 68.0628 91.1097 68.4871 91.3688 69.0015L91.6496 69.5588L93.2928 68.7308L93.8328 69.8025ZM102.234 74.2052C101.5 74.5748 100.75 74.7441 99.9815 74.713C99.2229 74.6772 98.5186 74.4408 97.8685 74.004C97.2231 73.5528 96.6964 72.9223 96.2885 72.1126C95.8853 71.3124 95.7016 70.5211 95.7374 69.7387C95.7779 68.9419 96.0166 68.2304 96.4535 67.6042C96.8857 66.9684 97.4733 66.4633 98.2163 66.089C98.9593 65.7146 99.7149 65.5429 100.483 65.574C101.246 65.5955 101.953 65.8247 102.603 66.2616C103.263 66.6936 103.797 67.3145 104.204 68.1242C104.612 68.9339 104.791 69.7396 104.741 70.5411C104.696 71.3284 104.453 72.0423 104.011 72.6828C103.569 73.3234 102.977 73.8309 102.234 74.2052ZM101.658 73.0621C102.125 72.827 102.508 72.4966 102.807 72.0712C103.106 71.6457 103.269 71.1515 103.296 70.5885C103.333 70.0207 103.192 69.4225 102.876 68.7938C102.559 68.165 102.166 67.694 101.698 67.3806C101.229 67.0672 100.742 66.9065 100.237 66.8985C99.7261 66.881 99.2375 66.9898 98.7707 67.225C98.2944 67.465 97.9114 67.7953 97.6217 68.216C97.3368 68.6223 97.1856 69.1046 97.1682 69.6628C97.1509 70.2209 97.3006 70.8144 97.6173 71.4431C97.9389 72.0813 98.3244 72.5619 98.7738 72.8849C99.2327 73.2031 99.7126 73.3734 100.214 73.3957C100.71 73.4085 101.191 73.2973 101.658 73.0621ZM109.699 62.0592C109.702 61.4963 109.851 60.9854 110.145 60.5266C110.449 60.0629 110.906 59.6775 111.516 59.3704L112.192 60.7135L111.849 60.8863C110.392 61.6206 110.062 62.7784 110.858 64.3597L113.004 68.6178L111.703 69.2729L107.758 61.4427L109.058 60.7875L109.699 62.0592ZM122.433 53.8698C123.043 53.5626 123.65 53.4177 124.256 53.4349C124.857 53.4426 125.423 53.6293 125.954 53.995C126.484 54.3606 126.932 54.9055 127.297 55.6294L129.622 60.2447L128.336 60.8927L126.104 56.4631C125.711 55.682 125.216 55.185 124.619 54.9722C124.026 54.745 123.402 54.797 122.744 55.1282C122.068 55.469 121.64 55.9592 121.461 56.599C121.277 57.2292 121.391 57.954 121.804 58.7732L123.978 63.0884L122.692 63.7364L120.46 59.3068C120.067 58.5257 119.572 58.0287 118.975 57.8159C118.382 57.5887 117.758 57.6407 117.1 57.9719C116.424 58.3127 115.996 58.8029 115.817 59.4427C115.633 60.073 115.747 60.7977 116.16 61.6169L118.334 65.9321L117.034 66.5873L113.089 58.757L114.389 58.1019L114.958 59.2307C115.008 58.6915 115.193 58.2043 115.511 57.7693C115.839 57.3294 116.265 56.9775 116.789 56.7135C117.446 56.3823 118.102 56.2372 118.755 56.2781C119.409 56.3191 120.004 56.5629 120.539 57.0097C120.48 56.3468 120.626 55.7358 120.977 55.1765C121.328 54.6173 121.814 54.1818 122.433 53.8698ZM134.592 57.902C133.992 58.2044 133.403 58.3755 132.826 58.4155C132.244 58.4459 131.724 58.3497 131.265 58.1269C130.802 57.8945 130.436 57.5474 130.167 57.0855L131.511 56.4088C131.745 56.7802 132.087 57.0081 132.536 57.0926C132.994 57.1723 133.49 57.0777 134.023 56.809C134.519 56.5594 134.854 56.2531 135.029 55.89C135.205 55.5269 135.209 55.1787 135.041 54.8453C134.868 54.5023 134.588 54.3267 134.202 54.3183C133.811 54.3004 133.255 54.3713 132.535 54.5309C131.877 54.6713 131.324 54.7589 130.876 54.7936C130.432 54.8141 130 54.7391 129.58 54.5686C129.165 54.3839 128.83 54.039 128.575 53.5342C128.374 53.1341 128.308 52.7073 128.378 52.2539C128.448 51.8005 128.654 51.3682 128.997 50.9569C129.334 50.5361 129.784 50.1841 130.346 49.9009C131.213 49.4642 132.023 49.3305 132.777 49.4999C133.532 49.6693 134.12 50.1255 134.542 50.8684L133.241 51.5235C133.007 51.1283 132.674 50.8836 132.245 50.7895C131.825 50.6906 131.362 50.7684 130.857 51.0228C130.39 51.2579 130.069 51.5451 129.894 51.8844C129.718 52.2236 129.712 52.5552 129.875 52.879C130.005 53.1362 130.194 53.3098 130.442 53.3996C130.695 53.4752 130.972 53.503 131.273 53.483C131.578 53.4486 131.985 53.3806 132.496 53.2789C133.134 53.1481 133.668 53.0701 134.098 53.045C134.522 53.0103 134.933 53.0782 135.329 53.2487C135.735 53.4144 136.063 53.733 136.312 54.2045C136.528 54.6332 136.604 55.079 136.538 55.5419C136.473 56.0048 136.271 56.4467 135.934 56.8675C135.601 57.274 135.154 57.6188 134.592 57.902Z" fill="#1E0A52"/>
</svg>
